<?xml version="1.0" encoding="UTF-8"?>
<!DOCTYPE svg PUBLIC "-//W3C//DTD SVG 1.1//EN" "http://www.w3.org/Graphics/SVG/1.1/DTD/svg11.dtd">
<!-- Creator: CorelDRAW X8 -->
<svg xmlns="http://www.w3.org/2000/svg" xml:space="preserve" width="0.503331in" height="0.223331in" version="1.1" style="shape-rendering:geometricPrecision; text-rendering:geometricPrecision; image-rendering:optimizeQuality; fill-rule:evenodd; clip-rule:evenodd"
viewBox="0 0 503 223"
 xmlns:xlink="http://www.w3.org/1999/xlink">
 <defs>
  <style type="text/css">
   <![CDATA[
    .fil1 {fill:#fff}
    .fil2 {fill:#fff;fill-rule:nonzero}
    .fil0 {fill:#ff1b1c;fill-rule:nonzero}
   ]]>
  </style>
 </defs>
 <g id="Layer_x0020_1">
  <metadata id="CorelCorpID_0Corel-Layer"/>
  <g id="_2897483160784">
   <path class="fil0" d="M409 66l0 4c6,-8 12,-13 19,-16 6,-4 13,-5 21,-5 10,0 18,2 27,7 8,5 14,12 19,22 4,9 7,20 7,33 0,10 -2,19 -4,27 -3,8 -7,15 -12,20 -4,6 -10,10 -16,13 -7,3 -14,4 -21,4 -9,0 -16,-2 -22,-5 -6,-4 -12,-9 -18,-16l0 47c0,14 -5,20 -15,20 -6,0 -9,-1 -11,-5 -2,-3 -3,-9 -3,-15l0 -135c0,-6 1,-10 4,-13 2,-3 6,-5 10,-5 5,0 8,2 11,5 3,3 4,7 4,13l0 0zm61 45c0,-8 -1,-15 -3,-21 -3,-6 -6,-10 -11,-14 -4,-3 -9,-4 -15,-4 -8,0 -16,3 -21,10 -6,7 -9,17 -9,30 0,12 3,22 9,29 5,7 13,10 21,10 6,0 10,-2 15,-5 4,-3 8,-7 10,-13 3,-6 4,-13 4,-22l0 0z"/>
   <path class="fil0" d="M33 21l0 46c4,-4 8,-8 11,-11 4,-2 8,-4 13,-6 4,-1 9,-2 15,-2 8,0 15,2 21,5 6,4 11,9 14,15 2,4 4,8 5,12 0,5 1,10 1,16l0 60c0,6 -2,11 -5,14 -2,3 -6,5 -11,5 -10,0 -15,-6 -15,-19l0 -53c0,-10 -2,-17 -5,-23 -3,-5 -8,-8 -17,-8 -5,0 -10,2 -15,5 -4,3 -8,8 -10,13 -1,5 -2,13 -2,25l0 41c0,6 -2,11 -4,14 -3,3 -7,5 -12,5 -10,0 -15,-6 -15,-19l0 -135c0,-6 1,-11 4,-14 2,-3 6,-5 11,-5 5,0 9,2 12,5 2,3 4,8 4,14z"/>
   <path class="fil0" d="M251 112c0,9 -1,18 -4,25 -3,8 -7,15 -13,21 -5,5 -12,10 -19,13 -8,3 -17,4 -26,4 -10,0 -18,-1 -26,-5 -7,-3 -14,-7 -19,-13 -6,-5 -10,-12 -13,-20 -3,-7 -4,-16 -4,-25 0,-10 1,-18 4,-26 3,-8 7,-15 13,-20 5,-6 12,-10 19,-13 8,-3 17,-5 26,-5 9,0 18,2 26,5 7,3 14,7 19,13 6,6 10,12 13,20 3,8 4,16 4,26l0 0z"/>
   <path class="fil1" d="M160 99c0,-2 2,-4 4,-4 1,0 2,0 3,1 1,2 1,4 0,6l0 0c-3,2 -7,0 -7,-3l0 0zm4 -9l1 0c1,0 2,1 3,1 0,0 0,0 1,1 0,0 0,0 0,0 1,1 2,1 2,2 2,3 2,7 1,10l-1 1c-1,1 -1,3 -2,4 0,0 -2,2 -2,3 -1,1 -2,1 -3,2 0,0 0,0 -1,-1 0,0 0,0 0,0l-1 -1c-2,-2 -3,-4 -4,-5 0,-1 -1,-2 -1,-3 -1,-1 -1,-3 -1,-5 0,-2 1,-5 2,-6 0,0 1,-1 1,-1 1,0 1,0 1,-1 0,0 0,0 0,0 2,0 3,-1 4,-1l0 0z"/>
   <path class="fil0" d="M366 112c0,9 -2,18 -5,25 -3,8 -7,15 -12,21 -6,5 -12,10 -20,13 -8,3 -16,4 -26,4 -9,0 -18,-1 -25,-5 -8,-3 -14,-7 -20,-13 -5,-5 -9,-12 -12,-20 -3,-7 -5,-16 -5,-25 0,-10 2,-18 5,-26 3,-8 7,-15 12,-20 6,-6 12,-10 20,-13 7,-3 16,-5 25,-5 10,0 18,2 26,5 8,3 14,7 20,13 5,6 9,12 12,20 3,8 5,16 5,26l0 0z"/>
   <g>
    <path class="fil2" d="M166 118c0,0 -1,-1 0,-1 0,-1 0,-1 1,-1l-1 2zm5 -1l0 2 0 0 -1 0 -1 0 -1 -1 0 0 -1 0 0 0 0 0 -1 0 1 -2 0 0 0 0 1 0 0 0 1 0 0 0 1 1 1 0 0 0zm0 0c1,0 1,1 1,1 0,1 0,1 -1,1l0 -2zm7 3c-1,0 -1,0 -1,-1 0,-1 1,-1 1,-1l0 2zm5 -2l0 3 -1 0 -2 -1 -1 0 -1 0 0 -2 1 0 1 0 2 0 1 0zm0 0c0,0 1,1 1,2 0,0 -1,1 -1,1l0 -3zm7 2c-1,1 -1,0 -2,-1 0,0 1,-1 2,-1l0 2zm4 -3l0 3 0 0 -1 0 -1 0 -2 0 0 0 0 -2 0 0 1 0 1 0 2 -1 0 0zm0 0c0,0 1,1 1,1 0,1 0,1 -1,2l0 -3zm7 -1c0,0 -1,0 -2,0 0,-1 0,-1 0,-2l2 2zm1 -5l2 1 0 0 -1 1 -1 1 0 1 -1 1 -2 -2 1 0 1 -1 0 -1 1 -1 0 0zm0 0c0,-1 1,-1 2,0 0,0 0,1 0,1l-2 -1zm6 -5c-1,1 -1,1 -2,1 0,-1 0,-1 0,-2l2 1zm0 -5l2 1 0 1 -1 1 0 1 -1 1 0 0 -2 -1 0 0 1 -1 0 -1 1 -1 0 -1zm0 0c1,0 1,-1 2,0 1,0 1,1 0,1l-2 -1zm7 -4c-1,1 -2,1 -2,0 -1,0 -1,-1 0,-1l2 1zm2 -5l1 2 0 0 -1 1 -1 1 -1 0 0 1 -2 -1 1 -1 1 -1 1 -1 1 -1 0 0zm0 0c0,0 1,0 1,1 1,0 0,1 0,1l-1 -2zm7 0c-1,1 -1,0 -1,-1 0,0 0,-1 1,-1l0 2zm5 -2l-1 3 -1 -1 -1 0 -2 0 0 0 0 -2 0 0 2 0 1 0 2 0zm0 0c0,0 1,1 1,2 0,0 -1,1 -2,1l1 -3zm6 4c-1,0 -1,-1 -1,-1 0,-1 1,-1 2,-1l-1 2zm5 -1l-1 2 0 0 -1 0 -2 -1 -1 0 1 -2 1 0 1 1 2 0 0 0zm0 0c1,0 1,1 1,1 0,1 -1,1 -2,1l1 -2zm6 4c-1,0 -1,-1 -1,-1 0,-1 1,-1 2,-1l-1 2zm5 -1l0 2 0 0 -2 0 -2 -1 -1 0 1 -2 1 0 1 0 2 1 0 0zm0 0c1,0 1,1 1,1 0,1 -1,1 -1,1l0 -2zm7 3c-1,0 -1,-1 -1,-1 0,-1 0,-2 1,-2l0 3zm4 -3l1 2 -1 0 -1 1 -2 0 -1 0 0 -3 1 0 1 0 2 0 0 0zm0 0c1,0 1,0 2,1 0,1 -1,1 -1,1l-1 -2zm8 0c-1,1 -2,0 -2,0 0,-1 0,-1 1,-2l1 2zm2 -4l2 2 -1 1 -2 1 -1 0 -1 -2 1 0 1 -1 1 -1zm0 0c1,0 2,0 2,0 0,1 0,2 0,2l-2 -2zm7 -3c0,1 -1,1 -1,0 -1,0 -1,-1 0,-1l1 1zm0 -3l2 2 0 0 -2 1 0 0 -1 -1 0 0 1 -2 0 0zm0 0c1,0 1,0 2,0 0,0 0,1 0,2l-2 -2zm2 -2l1 2 -1 2 -2 -2 2 -2zm0 0c0,0 1,0 1,0 1,1 1,1 0,2l-1 -2zm7 -2c-1,0 -2,0 -2,-1 0,0 0,-1 0,-1l2 2zm3 -4l1 2 -1 0 -2 1 -1 1 -2 -2 2 -1 2 -1 1 0zm0 0c0,-1 1,0 1,0 0,1 0,1 0,2l-1 -2zm7 0c-1,0 -1,0 -1,-1 -1,-1 0,-1 0,-1l1 2zm4 -3l0 3 0 0 -2 0 -2 0 0 0 -1 -2 1 0 2 -1 2 0 0 0zm0 0c1,0 1,1 1,1 0,1 0,2 -1,2l0 -3zm7 4c-1,-1 -1,-1 -1,-2 0,0 1,-1 1,-1l0 3zm5 -1l-1 2 -1 -1 -2 0 -1 0 0 -3 2 1 1 0 2 1zm0 0c1,0 1,1 1,1 -1,1 -1,1 -2,1l1 -2zm5 5c-1,0 -1,-1 0,-1 0,-1 1,-1 1,0l-1 1zm5 2l-2 2 -1 -1 -1 -2 -1 -1 1 -1 1 1 2 1 1 1zm0 0c0,0 0,1 0,2 -1,0 -2,0 -2,0l2 -2zm1 7c0,0 0,-1 1,-1 0,-1 1,0 1,0l-2 1zm3 2l-2 0 0 0 -1 -1 0 -1 2 -1 1 1 0 2 0 0zm0 0c0,0 0,1 -1,1 -1,0 -1,0 -1,-1l2 0zm0 2l-2 0 0 0 0 -2 2 0 0 1 0 1zm0 0c0,1 0,1 -1,1 0,1 -1,0 -1,-1l2 0zm-1 7c0,0 0,-1 1,-1 0,0 1,1 1,1l-2 0zm2 5l-2 0 0 -2 0 -2 0 -1 2 0 0 1 0 2 0 2zm0 0c0,0 -1,1 -1,1 -1,0 -1,-1 -1,-1l2 0zm-3 7c0,-1 1,-1 2,-1 0,0 1,0 1,1l-3 0zm2 5l-2 -1 0 -1 0 -2 0 -1 3 0 -1 2 0 2 0 1zm0 0c0,0 -1,1 -1,0 -1,0 -1,0 -1,-1l2 1zm-4 6c0,-1 1,-1 1,-1 1,0 1,1 1,1l-2 0zm1 5l-3 -1 1 -1 0 -1 1 -2 0 0 2 0 0 1 0 2 -1 1 0 1zm0 0c-1,0 -1,1 -2,0 -1,0 -1,-1 -1,-1l3 1zm-6 4c0,0 1,0 1,0 1,1 1,1 0,2l-1 -2zm-2 5l-2 -2 1 0 1 -1 1 -1 1 -1 1 2 0 1 -2 1 -1 1 0 0zm0 0c-1,0 -2,0 -2,0 0,-1 0,-2 0,-2l2 2zm-8 0c1,0 1,0 2,1 0,0 -1,1 -2,1l0 -2zm-4 2l1 -3 2 1 1 0 0 2 -2 0 -2 0zm0 0c0,0 -1,-1 -1,-2 0,0 1,-1 2,-1l-1 3z"/>
   </g>
   <path class="fil1" d="M285 143l0 -12c2,0 3,-1 4,-2 0,0 0,-1 0,-1 0,1 0,1 1,2 2,2 5,2 6,0 1,-1 1,-2 1,-2l0 0c0,1 0,1 0,1 0,1 1,2 3,2 0,4 0,9 0,13l-15 0 0 -1 0 0zm-4 -15c0,0 0,0 0,0 1,1 0,1 1,2 1,1 1,1 2,1l0 13 -6 0 0 -13c1,0 2,0 2,-1 1,-1 1,-2 1,-2l0 0zm-6 2c0,1 1,1 1,1l0 13c0,0 -2,0 -2,0 -1,1 0,2 0,2l30 0c0,0 1,-1 1,-1 -1,-1 -1,-1 -3,-1l0 -13c1,0 1,0 2,-1 1,-1 1,-2 1,-3l-31 0c0,1 0,2 1,3l0 0z"/>
   <path class="fil1" d="M289 124c0,0 0,-4 0,-4 0,-1 0,-1 1,0 0,0 0,2 0,3 0,0 0,1 -1,1 0,0 0,0 0,0l0 0zm-3 -4c0,0 -1,1 -1,1l-1 3c-1,0 -1,0 -1,-1l2 -3c0,-1 1,0 1,0l0 0zm-4 0l-2 3c0,0 0,1 0,1 -1,0 -1,0 -1,-1l2 -3c0,0 0,0 0,0 0,-1 1,-1 1,0zm14 0c0,-1 1,-1 1,0 1,0 2,3 2,4 0,0 0,0 -1,0 0,-1 0,-1 0,-2 -1,0 -2,-2 -2,-2zm-4 0c0,-1 1,-1 1,0 1,0 2,3 2,4 0,0 0,0 -1,0 0,-1 -2,-4 -2,-4zm-18 6l0 0 31 0 0 0c-1,-1 -3,-6 -4,-7 0,0 0,-1 0,-1l-24 0c0,0 0,1 0,1l-2 5c-1,0 -1,1 -1,2l0 0z"/>
   <path class="fil1" d="M300 115l-22 0c0,0 -1,0 -1,1 0,1 1,1 1,1 1,0 3,0 4,0 5,0 9,0 14,0 1,0 3,0 4,0 1,0 1,-1 1,-2 -1,0 -1,0 -1,0l0 0z"/>
   <path class="fil1" d="M283 136c0,0 0,0 0,-1 0,0 0,-1 -1,-1 0,0 -1,1 -1,1 0,1 1,1 1,1l0 2c0,1 -1,1 -1,1 1,1 2,1 2,0 0,0 0,0 0,-1l0 -2 0 0z"/>
   <path class="fil1" d="M291 139c1,-1 2,-2 4,-4 0,0 1,-1 1,-1 0,0 0,-1 -1,-1l-5 6c0,0 0,0 1,0z"/>
   <path class="fil1" d="M290 136c0,0 0,1 1,1 0,-1 2,-3 2,-3l0 -1c-1,1 -3,2 -3,3l0 0z"/>
   <path class="fil1" d="M296 137c0,-1 0,-1 -1,-1 0,0 -2,3 -2,3 0,0 0,0 0,0l3 -2 0 0z"/>
  </g>
 </g>
</svg>
